Coordinates
version=1
nRows=11
nColumns=40
inDegrees=yes

Units are S.I. units (second, meters, Newtons, ...)
If the header above contains a line with 'inDegrees', this indicates whether rotational values are in degrees (yes) or radians (no).

endheader
time	pelvis_tilt	pelvis_list	pelvis_rotation	pelvis_tx	pelvis_ty	pelvis_tz	hip_flexion_r	hip_adduction_r	hip_rotation_r	knee_angle_r	knee_angle_r_beta	ankle_angle_r	subtalar_angle_r	mtp_angle_r	hip_flexion_l	hip_adduction_l	hip_rotation_l	knee_angle_l	knee_angle_l_beta	ankle_angle_l	subtalar_angle_l	mtp_angle_l	lumbar_extension	lumbar_bending	lumbar_rotation	arm_flex_r	arm_add_r	arm_rot_r	elbow_flex_r	pro_sup_r	wrist_flex_r	wrist_dev_r	arm_flex_l	arm_add_l	arm_rot_l	elbow_flex_l	pro_sup_l	wrist_flex_l	wrist_dev_l
      8.52500000	      4.79234634	     -4.34360453	    179.45848481	      0.26503597	      0.90463134	     -0.63522922	     29.06990139	    -12.55257641	     -5.58052107	     26.41603365	      0.46104676	      2.80720164	      0.00000000	      0.00000000	     25.60395616	     -8.09011365	    -19.99997298	     23.85275762	      0.41630916	     -0.38430198	      0.00000000	      0.00000000	    -34.44862310	     -4.53914581	     -1.75478639	     31.04208169	     -1.90272604	     31.40918882	      2.85509838	      8.54266262	      0.00000000	      0.00000000	     37.91677088	    -10.28431316	     86.80769408	      5.86120161	     85.98525447	      0.00000000	      0.00000000
      8.53000000	      4.62655619	     -4.36811440	    179.42662367	      0.26387827	      0.90520681	     -0.63516426	     28.76963800	    -12.62091610	     -5.83705361	     26.37145011	      0.46026863	      2.79418612	      0.00000000	      0.00000000	     25.17740487	     -8.01995115	    -20.19859351	     23.56348252	      0.41126035	     -0.35269870	      0.00000000	      0.00000000	    -34.02009462	     -4.56263152	     -1.72627248	     30.66218312	     -1.91780448	     31.56810342	      2.85244177	      8.55142447	      0.00000000	      0.00000000	     37.48220245	    -10.29837166	     86.86312559	      5.89159612	     85.98276626	      0.00000000	      0.00000000
      8.53500000	      4.49043900	     -4.41380212	    179.36703815	      0.26263853	      0.90560985	     -0.63516764	     28.47492184	    -12.68745638	     -5.94213873	     26.27523322	      0.45858933	      2.84619302	      0.00000000	      0.00000000	     24.82425385	     -7.96909137	    -20.40352661	     23.39271695	      0.40827993	     -0.30691774	      0.00000000	      0.00000000	    -33.53695686	     -4.61618835	     -1.70520561	     30.24570018	     -1.92261016	     31.63991372	      2.81177990	      8.55097553	      0.00000000	      0.00000000	     37.01448938	    -10.32957234	     86.89667509	      5.92449268	     85.99230576	      0.00000000	      0.00000000
      8.54000000	      4.32573110	     -4.45660361	    179.34814699	      0.26145155	      0.90609264	     -0.63508609	     28.17227195	    -12.80181371	     -6.17171034	     26.20031081	      0.45728169	      2.91411472	      0.00000000	      0.00000000	     24.42594534	     -7.88211698	    -20.50969054	     23.17605457	      0.40449846	     -0.22947566	      0.00000000	      0.00000000	    -33.11217382	     -4.65466817	     -1.71455650	     29.85490671	     -1.95069256	     31.73842496	      2.81080591	      8.55813975	      0.00000000	      0.00000000	     36.56939779	    -10.35216069	     86.90842085	      5.95463522	     85.99021423	      0.00000000	      0.00000000
      8.54500000	      3.74947103	     -4.61277621	    179.44934274	      0.25995385	      0.90748255	     -0.63453110	     27.31679391	    -13.15366511	     -6.76377787	     26.07758372	      0.45513970	      3.03168602	      0.00000000	      0.00000000	     23.37851324	     -7.44316663	    -20.27816688	     22.45436391	      0.39190258	     -0.15343482	      0.00000000	      0.00000000	    -33.13823339	     -4.69685506	     -1.97338666	     29.44527225	     -2.09382952	     32.47186222	      3.01450105	      8.65741981	      0.00000000	      0.00000000	     36.15088423	    -10.39545919	     86.88076917	      5.93780502	     85.94320765	      0.00000000	      0.00000000
      8.55000000	      3.13105786	     -4.82625184	    179.38739882	      0.25834393	      0.90898349	     -0.63434819	     26.41895585	    -13.48696571	     -7.20779021	     25.84763508	      0.45112634	      2.95404704	      0.00000000	      0.00000000	     22.34626551	     -7.13050066	    -20.69412911	     21.98618625	      0.38373134	     -0.40167710	      0.00000000	      0.00000000	    -33.19189556	     -4.88263773	     -2.13243537	     28.88531482	     -2.29545926	     34.33782718	      3.05920069	      8.87247930	      0.00000000	      0.00000000	     35.74486111	    -10.47113149	     86.84380393	      5.97856036	     85.90415613	      0.00000000	      0.00000000
      8.55500000	      3.03357609	     -4.85494055	    179.37823052	      0.25716602	      0.90916930	     -0.63417346	     26.22630235	    -13.58373813	     -7.37543966	     25.87914443	      0.45167628	      3.11075718	      0.00000000	      0.00000000	     22.12294990	     -7.07020153	    -20.62310827	     21.95726987	      0.38322665	     -0.23952259	      0.00000000	      0.00000000	    -32.65958179	     -4.89614269	     -2.13592709	     28.46621560	     -2.35421920	     34.55234756	      3.08415568	      8.91252287	      0.00000000	      0.00000000	     35.27393648	    -10.49517910	     86.82383876	      6.02496731	     85.90317035	      0.00000000	      0.00000000
      8.56000000	      2.52949879	     -5.06260479	    179.35198951	      0.25564112	      0.91019595	     -0.63395211	     25.57029389	    -13.93227134	     -7.78008021	     25.88771960	      0.45182594	      3.18586095	      0.00000000	      0.00000000	     21.26147775	     -6.74524580	    -20.79897211	     21.55472184	      0.37620087	     -0.27323643	      0.00000000	      0.00000000	    -32.57550632	     -5.06821615	     -2.29725297	     27.91477296	     -2.54880080	     36.12356744	      3.17257068	      9.17473552	      0.00000000	      0.00000000	     34.83210403	    -10.58895346	     86.83373596	      6.08028144	     85.94316964	      0.00000000	      0.00000000
      8.56500000	      2.40743762	     -5.08323939	    179.23487481	      0.25439629	      0.91040464	     -0.63406159	     25.38670866	    -13.96488605	     -7.83018786	     25.90528081	      0.45213244	      3.22680353	      0.00000000	      0.00000000	     20.97521103	     -6.75447604	    -21.00199917	     21.49884778	      0.37522568	     -0.16593241	      0.00000000	      0.00000000	    -32.06407762	     -5.13504009	     -2.19378589	     27.54774267	     -2.53724515	     36.12200882	      3.12501169	      9.17532512	      0.00000000	      0.00000000	     34.40566642	    -10.61092454	     86.84251689	      6.13264998	     85.95275089	      0.00000000	      0.00000000
      8.57000000	      1.81592835	     -5.28943827	    179.29971686	      0.25276253	      0.91165779	     -0.63349966	     24.58301404	    -14.38604229	     -8.45153440	     25.90501421	      0.45212779	      3.36755322	      0.00000000	      0.00000000	     20.00803240	     -6.33760745	    -20.97390981	     21.04294451	      0.36726867	     -0.07613373	      0.00000000	      0.00000000	    -32.08363513	     -5.23552845	     -2.41101881	     27.12015439	     -2.69071749	     36.76066328	      3.26084865	      9.36688755	      0.00000000	      0.00000000	     34.00771988	    -10.64301761	     86.82724051	      6.16853677	     85.90912543	      0.00000000	      0.00000000
      8.57500000	      1.67374521	     -5.33942534	    179.18157819	      0.25144463	      0.91190569	     -0.63358174	     24.37278309	    -14.44558385	     -8.49635719	     25.91113306	      0.45223458	      3.40990870	      0.00000000	      0.00000000	     19.69828366	     -6.30999443	    -21.18083498	     20.98927785	      0.36633201	      0.02207240	      0.00000000	      0.00000000	    -31.58475551	     -5.32568999	     -2.32078111	     26.74827240	     -2.68993083	     36.76285809	      3.20209691	      9.36673312	      0.00000000	      0.00000000	     33.55625118	    -10.67984788	     86.85692914	      6.21850739	     85.93348610	      0.00000000	      0.00000000
